<svg xmlns="http://www.w3.org/2000/svg" width="40" height="40" style=""><rect id="backgroundrect" width="100%" height="100%" x="0" y="0" fill="none" stroke="none"/><style>.st2{fill:red}.st3{fill:#e0e0e0}.st4{fill:none;stroke:#666;stroke-width:.5;stroke-miterlimit:10}</style><g class="currentLayer" style=""><title>Layer 1</title><path d="M35 28H5a1 1 0 0 1-1-1V12c0-.6.4-1 1-1h30c.5 0 1 .4 1 1v15c0 .5-.5 1-1 1z" fill="#6d6d6d" id="Layer_6" class="" fill-opacity="1"/><path fill="#242424" fill-opacity="1" stroke="none" stroke-opacity="1" stroke-width="1" stroke-dasharray="none" stroke-linejoin="miter" stroke-linecap="butt" stroke-dashoffset="" fill-rule="nonzero" opacity="1" marker-start="" marker-mid="" marker-end="" d="M5.183673441410065,19.33673483133316 C5.183673441410065,16.038730637473954 7.855056838436022,13.367347240447998 11.153061032295227,13.367347240447998 C14.451065226154434,13.367347240447998 17.12244862318039,16.038730637473954 17.12244862318039,19.33673483133316 C17.12244862318039,22.634739025192367 14.451065226154434,25.306122422218323 11.153061032295227,25.306122422218323 C7.855056838436022,25.306122422218323 5.183673441410065,22.634739025192367 5.183673441410065,19.33673483133316 z" id="svg_1" class=""/><path fill="#000000" fill-opacity="1" stroke="none" stroke-opacity="1" stroke-width="1" stroke-dasharray="none" stroke-linejoin="miter" stroke-linecap="butt" stroke-dashoffset="" fill-rule="nonzero" opacity="1" marker-start="" marker-mid="" marker-end="" d="M6.673469364643097,19.29591853171587 C6.673469364643097,16.798455529326564 8.696414396578437,14.775510497391224 11.193877398967743,14.775510497391224 C13.69134040135705,14.775510497391224 15.714285433292389,16.798455529326564 15.714285433292389,19.29591853171587 C15.714285433292389,21.793381534105176 13.69134040135705,23.816326566040516 11.193877398967743,23.816326566040516 C8.696414396578437,23.816326566040516 6.673469364643097,21.793381534105176 6.673469364643097,19.29591853171587 z" id="svg_2" class=""/><path fill="#1a1aeb" fill-opacity="1" stroke="none" stroke-opacity="1" stroke-width="1" stroke-dasharray="none" stroke-linejoin="miter" stroke-linecap="butt" stroke-dashoffset="" fill-rule="nonzero" opacity="1" marker-start="" marker-mid="" marker-end="" d="M23.448979794979095,20.795918479561806 C23.448979794979095,19.036982909503564 24.873717606726274,17.612245097756386 26.632653176784515,17.612245097756386 C28.391588746842753,17.612245097756386 29.816326558589935,19.036982909503564 29.816326558589935,20.795918479561806 C29.816326558589935,22.554854049620044 28.391588746842753,23.979591861367226 26.632653176784515,23.979591861367226 C24.873717606726274,23.979591861367226 23.448979794979095,22.554854049620044 23.448979794979095,20.795918479561806 z" id="svg_4" class=""/><path fill="#eb1a1a" fill-opacity="1" stroke="none" stroke-opacity="1" stroke-width="1" stroke-dasharray="none" stroke-linejoin="miter" stroke-linecap="butt" stroke-dashoffset="" fill-rule="nonzero" opacity="1" marker-start="" marker-mid="" marker-end="" d="M28.77551007270813,16.91836726665497 C28.77551007270813,15.069229781298347 30.273311435846992,13.571428418159485 32.12244892120361,13.571428418159485 C33.971586406560235,13.571428418159485 35.4693877696991,15.069229781298347 35.4693877696991,16.91836726665497 C35.4693877696991,18.76750475201159 33.971586406560235,20.26530611515045 32.12244892120361,20.26530611515045 C30.273311435846992,20.26530611515045 28.77551007270813,18.76750475201159 28.77551007270813,16.91836726665497 z" id="svg_3" class=""/><path fill="#e8e841" fill-opacity="1" stroke="none" stroke-opacity="1" stroke-width="1" stroke-dasharray="none" stroke-linejoin="miter" stroke-linecap="butt" stroke-dashoffset="" fill-rule="nonzero" opacity="1" marker-start="" marker-mid="" marker-end="" d="M18.530612289905548,22.612244963645935 C18.530612289905548,21.631300106233 19.32517762441003,20.836734771728516 20.306122481822968,20.836734771728516 C21.287067339235904,20.836734771728516 22.081632673740387,21.631300106233 22.081632673740387,22.612244963645935 C22.081632673740387,23.59318982105887 21.287067339235904,24.387755155563354 20.306122481822968,24.387755155563354 C19.32517762441003,24.387755155563354 18.530612289905548,23.59318982105887 18.530612289905548,22.612244963645935 z" id="svg_6" class=""/></g></svg>